<svg width="800" height="800" viewBox="0 0 800 800" xmlns="http://www.w3.org/2000/svg">
    <g transform="translate(100, 50) scale(0.6)">
        <!-- This is a simplified outline of Africa. For a detailed map with country borders,
             you would need a more complex SVG with each country as a separate path element with its own ID -->
        <path class="country" id="morocco" d="M100,100 L150,80 L200,90 L180,150 L120,140 Z" />
        <path class="country" id="algeria" d="M150,80 L200,90 L250,70 L300,100 L280,180 L180,150 Z" />
        <path class="country" id="tunisia" d="M250,70 L270,50 L290,60 L300,100 Z" />
        <path class="country" id="libya" d="M300,100 L350,80 L400,100 L380,180 L280,180 Z" />
        <path class="country" id="egypt" d="M400,100 L450,80 L480,120 L450,150 L380,180 Z" />
        <path class="country" id="mauritania" d="M100,100 L120,140 L100,200 L50,180 Z" />
        <path class="country" id="mali" d="M120,140 L180,150 L200,200 L150,250 L100,200 Z" />
        <path class="country" id="niger" d="M180,150 L280,180 L300,220 L250,250 L200,200 Z" />
        <path class="country" id="chad" d="M280,180 L380,180 L400,250 L350,300 L300,220 Z" />
        <path class="country" id="sudan" d="M380,180 L450,150 L500,200 L450,300 L400,250 Z" />
        <path class="country" id="eritrea" d="M450,150 L480,120 L520,150 L500,200 Z" />
        <path class="country" id="ethiopia" d="M500,200 L550,180 L580,220 L550,280 L500,300 L450,300 Z" />
        <path class="country" id="djibouti" d="M520,150 L540,160 L550,180 L500,200 Z" />
        <path class="country" id="somalia" d="M550,180 L600,150 L650,200 L600,300 L550,280 Z" />
        <path class="country" id="senegal" d="M50,180 L100,200 L80,230 L40,220 Z" />
        <path class="country" id="gambia" d="M40,220 L80,230 L40,240 Z" />
        <path class="country" id="guinea-bissau" d="M40,240 L80,230 L70,260 L30,250 Z" />
        <path class="country" id="guinea" d="M80,230 L100,200 L150,250 L120,280 L70,260 Z" />
        <path class="country" id="sierra-leone" d="M70,260 L120,280 L100,300 L60,280 Z" />
        <path class="country" id="liberia" d="M60,280 L100,300 L120,350 L50,320 Z" />
        <path class="country" id="cote-d-ivoire" d="M120,280 L150,250 L200,280 L180,350 L120,350 Z" />
        <path class="country" id="burkina-faso" d="M150,250 L200,200 L250,250 L200,280 Z" />
        <path class="country" id="ghana" d="M200,280 L250,250 L280,300 L250,350 L180,350 Z" />
        <path class="country" id="togo" d="M250,350 L280,300 L300,350 L270,380 Z" />
        <path class="country" id="benin" d="M280,300 L250,250 L300,220 L330,300 L300,350 Z" />
        <path class="country" id="nigeria" d="M300,220 L350,300 L330,350 L330,300 Z" />
        <path class="country" id="cameroon" d="M330,300 L350,300 L380,350 L350,400 L330,350 Z" />
        <path class="country" id="central-african-republic" d="M350,300 L400,250 L450,300 L400,350 L380,350 Z" />
        <path class="country" id="south-sudan" d="M400,250 L450,300 L500,300 L480,350 L400,350 Z" />
        <path class="country" id="kenya" d="M500,300 L550,280 L580,350 L520,400 L480,350 Z" />
        <path class="country" id="uganda" d="M480,350 L520,400 L480,450 L450,400 L400,350 Z" />
        <path class="country" id="democratic-republic-of-the-congo" d="M330,350 L350,400 L400,500 L350,550 L300,500 L250,500 L300,400 Z" />
        <path class="country" id="rwanda" d="M450,400 L480,450 L450,470 L420,450 Z" />
        <path class="country" id="burundi" d="M450,470 L480,450 L500,480 L470,500 Z" />
        <path class="country" id="tanzania" d="M480,450 L520,400 L580,450 L550,500 L500,480 Z" />
        <path class="country" id="angola" d="M300,400 L250,500 L300,600 L350,550 Z" />
        <path class="country" id="zambia" d="M350,550 L400,500 L450,470 L500,480 L550,500 L500,600 L400,600 Z" />
        <path class="country" id="malawi" d="M500,480 L550,500 L530,550 L480,530 Z" />
        <path class="country" id="mozambique" d="M500,600 L550,500 L600,550 L580,650 L500,700 Z" />
        <path class="country" id="zimbabwe" d="M400,600 L500,600 L500,700 L400,650 Z" />
        <path class="country" id="botswana" d="M350,600 L400,600 L400,650 L350,700 Z" />
        <path class="country" id="namibia" d="M300,600 L350,600 L350,700 L300,750 L250,700 Z" />
        <path class="country" id="south-africa" d="M300,750 L350,700 L400,650 L500,700 L450,800 L350,800 Z" />
        <path class="country" id="lesotho" d="M400,750 L450,700 L480,750 L450,780 Z" />
        <path class="country" id="eswatini" d="M500,700 L530,680 L550,700 L530,720 Z" />
        <path class="country" id="madagascar" d="M600,550 L650,500 L680,550 L650,650 L600,600 Z" />
    </g>
</svg>